<svg xmlns="http://www.w3.org/2000/svg" viewBox="0 0 64 64">
  <defs>
    <linearGradient id="g" x1="0%" x2="100%" y1="0%" y2="100%">
      <stop offset="0%" stop-color="#8df3d5" />
      <stop offset="100%" stop-color="#ff9f7a" />
    </linearGradient>
  </defs>
  <rect width="64" height="64" rx="16" fill="#06131a" />
  <path
    d="M20 17c-5 3-8 9-8 15 0 8 5 16 14 18 3 1 7 1 9-1 1-1 2-3 2-5 0-3-2-6-5-7 4-1 7-5 7-10 0-4-2-8-6-10-4-2-9-2-13 0Z"
    fill="url(#g)"
  />
  <path
    d="M30 16c7-1 15 4 18 12 3 9 0 20-8 24-4 2-8 1-10-2-1-1-1-4 1-6 2-2 5-3 7-2-3-2-4-6-4-9 0-7 4-14 11-17-4-1-10-1-15 0Z"
    fill="#f8f3ee"
    fill-opacity=".9"
  />
</svg>

